# xmcd
#
# Track frame offsets: 
#        150
#        18761
#        32842
#        45625
#        62674
#        76105
#        92299
#        108600
#        122666
#        137618
#        152111
#        164905
#        181689
#        198567
#        213439
#        228485
#        239376
#        256178
#        268309
#        286874
#        302781
#
# Disc length: 4282 seconds
#
# Revision: 0
# Processed by: cddbd v1.5.1PL0 Copyright (c) Steve Scherf et al.
# Submitted via: ExactAudioCopy v0.95b2
#
DISCID=1f10b815
DTITLE=John Williamson - True Blue Two Disc 1
DYEAR=2003
DGENRE=Country
TTITLE0=True Blue - 21st Anniversary
TTITLE1=You Are Very Welcome (World Cup Song)
TTITLE2=Keep Australia Beautiful
TTITLE3=Sing You The Outback
TTITLE4=A Thousand Feet
TTITLE5=Campfire On The Road
TTITLE6=Three Sons
TTITLE7=Raining On The Plains
TTITLE8=On The Improve
TTITLE9=Amazing Day
TTITLE10=Back At The Isa
TTITLE11=Vegie Bill
TTITLE12=Prettiest Girl In The Kimberley
TTITLE13=At Lightning Ridge
TTITLE14=Coolabah Blue
TTITLE15=Camel Train To Yamba
TTITLE16=Old Farts In Caravan Parks (Live)
TTITLE17=Buried In Her Bedclothes
TTITLE18=Wonthaggi
TTITLE19=Tropical Fever
TTITLE20=Mountain Hideaway
EXTD=
EXTT0=
EXTT1=
EXTT2=
EXTT3=
EXTT4=
EXTT5=
EXTT6=
EXTT7=
EXTT8=
EXTT9=
EXTT10=
EXTT11=
EXTT12=
EXTT13=
EXTT14=
EXTT15=
EXTT16=
EXTT17=
EXTT18=
EXTT19=
EXTT20=
PLAYORDER=
